<?xml version="1.0" encoding="utf-8"?>
<!-- Generator: Adobe Illustrator 25.1.0, SVG Export Plug-In . SVG Version: 6.00 Build 0)  -->
<svg version="1.1" id="레이어_1" xmlns="http://www.w3.org/2000/svg" xmlns:xlink="http://www.w3.org/1999/xlink" x="0px"
	 y="0px" viewBox="0 0 1200 1200" style="enable-background:new 0 0 1200 1200;" xml:space="preserve">
<style type="text/css">
	.st0{fill:#246AB4;}
</style>
<path class="st0" d="M884.51,756.38c-13,0-24.5,5.25-33,13.75c-8.5,8.5-13.75,20.25-13.75,33l0.5,231.53
	c0,11.5-10.75,20.25-22.25,20.25H654.24c-11.75,0-22.25-10.5-22.25-22.25l0.25-227.28c0-140.27,113.76-254.03,254.03-254.03
	c28,0,53.26-11.25,71.51-29.5c18.25-18.25,29.75-43.51,29.75-71.51c0-28-11.5-53.51-29.75-72.01c-18.5-18.5-44.01-29.75-72.01-31.25
	H734.5c0,1.5-402.8,2-402.8,2c-55.76,0-100.76,45.26-100.76,100.76l0,0c0,55.76,45.26,100.76,100.76,100.76l0,0l0,0
	c0.75,0,1.25,0,2,0c88.26,0,166.02,45.26,211.03,114.01c24.25,36.75,39,80.51,41.01,127.27c6,143.77-111.26,263.03-255.03,263.03
	H29.16c-11.25,0-20.25-9-20.25-20.25V875.64c0-11.25,9-20.25,20.25-20.25h108.26c7.25,18.5,22.75,34.75,42.26,42.76
	c9,3.75,18.75,5.75,29,5.75c33,0,61.01-21,71.26-48.51h72.51c9,0,17.5-4,23-11.25c1.25-1.75,2.5-3.5,3.75-5
	c3.25-4.75,4.75-10.25,4.75-16v-8.75c0-8-2-15.75-5.5-22.75c-4.5-8.75-10.5-16-17-22c-1.5-1.25-3.75-3-5.5-4
	c-13-7.25-22.5-10.75-35-13l0,0c-161.02,0-291.79-130.52-291.79-291.79V178.31c0-17,13.75-30.75,30.75-30.75L731,145.3
	c0-0.75-1.25,0.75-1.25,0h154.02c164.77,0,304.79,134.77,307.29,299.54C1193.8,616.36,1055.54,756.38,884.51,756.38z"/>
</svg>
