<?xml version="1.0" encoding="utf-8"?>
<!-- Generator: Adobe Illustrator 25.1.0, SVG Export Plug-In . SVG Version: 6.00 Build 0)  -->
<svg version="1.1" id="레이어_1" xmlns="http://www.w3.org/2000/svg" xmlns:xlink="http://www.w3.org/1999/xlink" x="0px"
	 y="0px" viewBox="0 0 580 240" style="enable-background:new 0 0 580 240;" xml:space="preserve">
<style type="text/css">
	.st0{fill:#1F70C1;}
</style>
<g>
	<g>
		<path class="st0" d="M574.7,80.7c0,43.4-35.2,78.6-78.5,78.6c-3.3,0-6.3,1.3-8.5,3.5c-2.2,2.2-3.5,5.2-3.5,8.5v60.8
			c0,2.9-2.4,5.3-5.3,5.3H437c-3,0-5.4-2.4-5.4-5.4v-60.1c0-36,29.1-65.1,65.1-65.1c7.2,0,13.6-2.9,18.3-7.6
			c4.7-4.7,7.6-11.2,7.6-18.3c0-7.2-2.9-13.7-7.6-18.5c-4.7-4.7-11.2-7.6-18.5-7.6h-38.8c0,0.1,0,0.1,0,0.2H274
			c-2.2,0-4.2,1.4-4.9,3.5l-56.5,162.8l-3.6,10.4l-0.3,0.8c-0.6,1.7-2.2,2.8-4,2.8H170c-1.6,0-3-1-3.5-2.5l-3.8-10.9l-39.5-112.4
			c-0.7-2-2.6-3.4-4.8-3.4h-17c-2.9,0-5.2-2.3-5.2-5.2V72.4c0-2.8,2.3-5.2,5.2-5.2h54c2.1,0,3.9,1.3,4.6,3.3l5.4,15.5l20.2,57.5
			c0.7,2,3.5,1.9,4.1,0l32.5-93.6l15.2-43.8c0.7-2.1,2.7-3.5,4.9-3.5h254.2C539.7,2.6,574.7,37.5,574.7,80.7z"/>
		<path class="st0" d="M354.3,235.7h-68.9h-8.2c-2.9,0-5.2-2.3-5.2-5.2v-40.7c0-2.9,2.3-5.2,5.2-5.2h27.7c1.8,4.7,5.8,8.9,10.9,11
			c2.3,0.9,4.8,1.5,7.4,1.5c8.4,0,15.6-5.4,18.3-12.4H360c2.3,0,4.5-1,5.9-2.9c0.4-0.4,0.7-0.9,0.9-1.3c0.8-1.2,1.2-2.6,1.2-4.1V174
			c0-2-0.5-4-1.4-5.8c-1.2-2.2-2.7-4.1-4.4-5.6c-0.4-0.3-1-0.8-1.4-1c-3.5-1.9-5.9-2.9-9.4-3.4c-19.5-3.1-37.5-8.9-50.8-21.8
			c-4.4-4.3-8.3-9.1-11.6-14.3c-7.6-12-11.9-26.1-11.9-41.3c0-2.8,0.1-5.6,0.4-8.3c0.3-2.9,2.7-5.1,5.6-5.1h39.3
			c4.2,0,7.5,3.8,6.8,8c-0.3,1.6-0.5,3.2-0.5,4.9c0,14.3,11.6,26.3,25.8,26.3v0.1c0.2,0,0.4,0,0.5,0c22.6,0,42.5,11.6,54,29.2
			c6.2,9.4,10,20.6,10.5,32.6C421.2,205.2,391.2,235.7,354.3,235.7z"/>
		<path class="st0" d="M109.7,201.5V230c0,2.8-2.3,5.1-5.1,5.1h-93c-2.9,0-5.2-2.4-5.2-5.2v-28.4c0-2.8,2.3-5.1,5.1-5.1H27
			c2.8,0,5.1-2.3,5.1-5.1v-80.1c0-2.9-2.3-5.2-5.2-5.2H11.6c-2.9,0-5.3-2.4-5.3-5.3V72.5c0-2.9,2.4-5.3,5.3-5.3h67.1
			c2.8,0,5.1,2.3,5.1,5.1v119c0,2.8,2.3,5.1,5.1,5.1h15.6C107.3,196.4,109.7,198.7,109.7,201.5z"/>
		<circle class="st0" cx="58.5" cy="29" r="25.8"/>
	</g>
</g>
</svg>
